<svg width="1224" height="792" viewBox="0 0 1224 792" fill="none" xmlns="http://www.w3.org/2000/svg">
<g clip-path="url(#clip0_237_47)">
<rect width="1224" height="792" fill="#FFFDD0"/>
<path fill-rule="evenodd" clip-rule="evenodd" d="M216.12 0L192.107 33C168.093 66 120.067 132 132.073 198C144.08 264 216.12 330 228.127 396C240.133 462 192.107 528 150.083 594C108.06 660 72.0401 726 54.03 759L36.02 792H6.75143e-06V759C6.75143e-06 726 6.75143e-06 660 6.75143e-06 594C6.75143e-06 528 6.75143e-06 462 6.75143e-06 396C6.75143e-06 330 6.75143e-06 264 6.75143e-06 198C6.75143e-06 132 6.75143e-06 66 6.75143e-06 33V0L216.12 0Z" fill="#8B0000"/>
<path fill-rule="evenodd" clip-rule="evenodd" d="M1007.88 792L1031.89 759C1055.91 726 1103.93 660 1091.93 594C1079.92 528 1007.88 462 995.873 396C983.867 330 1031.89 264 1073.92 198C1115.94 132 1151.96 66 1169.97 33L1187.98 -3.14713e-05H1224V33C1224 66 1224 132 1224 198C1224 264 1224 330 1224 396C1224 462 1224 528 1224 594C1224 660 1224 726 1224 759V792H1007.88Z" fill="#2C3E50"/>
<path fill-rule="evenodd" clip-rule="evenodd" d="M626.788 149.041C696.319 148.631 775.778 126.393 825.8 174.69C876.118 223.271 868.377 304.328 859.477 373.702C851.855 433.106 819.193 481.708 780.541 527.456C736.695 579.353 694.685 646.709 626.788 649.111C558.031 651.544 509.715 588.062 461.753 538.737C414.788 490.438 364.86 440.815 358.988 373.702C352.672 301.505 374.585 223.601 430.107 177.022C482.847 132.778 557.949 149.447 626.788 149.041Z" fill="#F39C12"/>
<path fill-rule="evenodd" clip-rule="evenodd" d="M626.046 161.926C691.98 161.538 767.328 140.449 814.762 186.248C862.476 232.317 855.136 309.183 846.696 374.969C839.469 431.301 808.497 477.39 771.845 520.772C730.267 569.985 690.43 633.857 626.046 636.136C560.847 638.443 515.03 578.244 469.549 531.469C425.014 485.668 377.669 438.611 372.102 374.969C366.112 306.506 386.891 232.63 439.541 188.46C489.552 146.504 560.768 162.311 626.046 161.926Z" fill="#FFFDD0"/>
<path d="M423.641 361.094C430.703 361.344 436.266 361.469 440.328 361.469C446.234 361.469 451.516 361.344 456.172 361.094C456.297 361.594 456.359 361.938 456.359 362.125C456.359 362.469 456.297 362.859 456.172 363.297C452.047 363.422 449.25 363.734 447.781 364.234C446.344 364.703 445.625 365.531 445.625 366.719C445.625 366.75 445.844 367.531 446.281 369.062L465.781 414.344H466.25L484.531 368.453C484.719 367.984 484.812 367.375 484.812 366.625C484.812 365.594 484.25 364.859 483.125 364.422C482 363.984 480.062 363.609 477.312 363.297C477.188 362.609 477.125 362.188 477.125 362.031C477.125 361.781 477.188 361.469 477.312 361.094C481.344 361.281 484.984 361.375 488.234 361.375C491.797 361.375 495.359 361.281 498.922 361.094C499.047 361.469 499.109 361.781 499.109 362.031C499.109 362.531 499.047 362.953 498.922 363.297C496.578 363.516 494.625 364 493.062 364.75C491.531 365.469 490.344 366.703 489.5 368.453L464.141 431.359H461.938L434.703 369.062C433.266 365.781 429.578 363.859 423.641 363.297C423.516 362.734 423.453 362.344 423.453 362.125C423.453 361.812 423.516 361.469 423.641 361.094ZM524.562 387.391C527.656 387.391 530.438 387.938 532.906 389.031C535.406 390.125 537.531 391.641 539.281 393.578C541.031 395.516 542.375 397.844 543.312 400.562C544.25 403.25 544.719 406.188 544.719 409.375C544.719 415.875 542.891 421.156 539.234 425.219C535.609 429.312 530.719 431.359 524.562 431.359C521.5 431.359 518.719 430.828 516.219 429.766C513.75 428.672 511.641 427.156 509.891 425.219C508.141 423.25 506.781 420.922 505.812 418.234C504.875 415.547 504.406 412.594 504.406 409.375C504.406 406.188 504.875 403.25 505.812 400.562C506.75 397.844 508.078 395.516 509.797 393.578C511.547 391.641 513.672 390.125 516.172 389.031C518.672 387.938 521.469 387.391 524.562 387.391ZM524.562 390.438C521.375 390.438 518.828 391.984 516.922 395.078C515.047 398.172 514.109 402.938 514.109 409.375C514.109 415.812 515.047 420.578 516.922 423.672C518.828 426.734 521.375 428.266 524.562 428.266C527.75 428.266 530.281 426.719 532.156 423.625C534.062 420.531 535.016 415.781 535.016 409.375C535.016 406.156 534.766 403.359 534.266 400.984C533.766 398.609 533.062 396.641 532.156 395.078C531.25 393.516 530.156 392.359 528.875 391.609C527.594 390.828 526.156 390.438 524.562 390.438ZM553.25 388.422C554.375 388.484 555.5 388.547 556.625 388.609C557.75 388.672 558.641 388.719 559.297 388.75C559.953 388.781 560.562 388.797 561.125 388.797C561.594 388.797 562.141 388.781 562.766 388.75C563.391 388.719 564.234 388.672 565.297 388.609C566.391 388.547 567.438 388.484 568.438 388.422C569 388.609 569.453 389.094 569.797 389.875C569.766 390.125 569.703 390.5 569.609 391C569.547 391.469 569.484 392.047 569.422 392.734C569.391 393.391 569.375 394.203 569.375 395.172L569.281 417.438C569.281 423.062 570.984 425.875 574.391 425.875C577.547 425.875 582.031 423.797 587.844 419.641C587.844 410.328 587.703 402.172 587.422 395.172C587.422 394.609 587.312 394.109 587.094 393.672C586.875 393.234 586.531 392.859 586.062 392.547C585.625 392.234 585.219 391.984 584.844 391.797C584.5 391.578 583.984 391.391 583.297 391.234C582.609 391.047 582.125 390.938 581.844 390.906C581.562 390.844 581.094 390.75 580.438 390.625C580.312 390.125 580.25 389.75 580.25 389.5C580.25 389.281 580.312 388.922 580.438 388.422C581.531 388.484 582.641 388.547 583.766 388.609C584.922 388.672 585.828 388.719 586.484 388.75C587.141 388.781 587.75 388.797 588.312 388.797C588.781 388.797 589.328 388.781 589.953 388.75C590.578 388.719 591.422 388.672 592.484 388.609C593.578 388.547 594.625 388.484 595.625 388.422C595.781 388.516 595.906 388.609 596 388.703C596.125 388.766 596.219 388.859 596.281 388.984C596.375 389.078 596.438 389.156 596.469 389.219C596.5 389.25 596.547 389.359 596.609 389.547C596.672 389.703 596.719 389.812 596.75 389.875C596.5 391.562 596.375 393.328 596.375 395.172C596.188 399.766 596.094 403.5 596.094 406.375C596.094 407.875 596.125 410.391 596.188 413.922C596.25 417.453 596.281 420.547 596.281 423.203C598.062 424.234 601.062 424.875 605.281 425.125C605.438 425.906 605.516 426.312 605.516 426.344C605.516 426.531 605.438 426.859 605.281 427.328C599.375 427.891 594.094 429.172 589.438 431.172C588.625 430.828 588.094 430.406 587.844 429.906V422.594C584.719 425.281 581.766 427.422 578.984 429.016C576.234 430.578 573.453 431.359 570.641 431.359C567.078 431.359 564.547 430.359 563.047 428.359C561.578 426.359 560.812 423.219 560.75 418.938L560.375 395.172C560.312 394.453 560.172 393.922 559.953 393.578C559.766 393.203 559.438 392.859 558.969 392.547C558.531 392.234 558.125 391.984 557.75 391.797C557.375 391.578 556.844 391.391 556.156 391.234C555.469 391.047 554.984 390.938 554.703 390.906C554.422 390.844 553.938 390.75 553.25 390.625C553.125 390.125 553.062 389.75 553.062 389.5C553.062 389.281 553.125 388.922 553.25 388.422ZM650.281 417.812C651.031 417.969 651.641 418.312 652.109 418.844C650.547 423.031 648.125 426.172 644.844 428.266C641.562 430.328 638 431.359 634.156 431.359C632.25 431.359 630.391 431.109 628.578 430.609C626.766 430.141 625 429.359 623.281 428.266C621.594 427.172 620.109 425.828 618.828 424.234C617.578 422.609 616.562 420.594 615.781 418.188C615.031 415.75 614.656 413.062 614.656 410.125C614.656 403.344 616.734 397.859 620.891 393.672C625.047 389.484 630.234 387.391 636.453 387.391C640.828 387.391 644.391 388.344 647.141 390.25C649.922 392.125 651.312 394.531 651.312 397.469C651.312 399.125 650.766 400.5 649.672 401.594C648.578 402.688 647.234 403.234 645.641 403.234C643.953 403.234 642.594 402.75 641.562 401.781C640.531 400.781 640.016 399.625 640.016 398.312C640.016 395.938 641.219 394.438 643.625 393.812C643.406 393.094 642.703 392.359 641.516 391.609C640.328 390.828 638.641 390.438 636.453 390.438C635.328 390.438 634.266 390.578 633.266 390.859C632.266 391.109 631.188 391.656 630.031 392.5C628.906 393.344 627.938 394.453 627.125 395.828C626.344 397.203 625.688 399.125 625.156 401.594C624.625 404.031 624.359 406.875 624.359 410.125C624.359 412.312 624.578 414.297 625.016 416.078C625.484 417.859 626.203 419.469 627.172 420.906C628.141 422.344 629.469 423.469 631.156 424.281C632.844 425.094 634.828 425.5 637.109 425.5C638.547 425.5 639.906 425.312 641.188 424.938C642.469 424.531 643.5 424.109 644.281 423.672C645.094 423.234 645.953 422.578 646.859 421.703C647.797 420.797 648.422 420.156 648.734 419.781C649.047 419.375 649.562 418.719 650.281 417.812ZM658.109 362.594C664.047 362.031 669.312 360.75 673.906 358.75C674.75 359.094 675.297 359.516 675.547 360.016V396.016C678.641 393.391 681.547 391.297 684.266 389.734C686.984 388.172 689.75 387.391 692.562 387.391C696.094 387.391 698.609 388.391 700.109 390.391C701.609 392.391 702.391 395.516 702.453 399.766L702.828 423.578C702.859 424.391 703.094 425.094 703.531 425.688C704 426.25 704.656 426.688 705.5 427C706.344 427.312 707.047 427.547 707.609 427.703C708.172 427.828 708.906 427.953 709.812 428.078C709.969 428.859 710.047 429.281 710.047 429.344C710.047 429.5 709.969 429.812 709.812 430.281C705.781 430.094 702.109 430 698.797 430C695.453 430 691.766 430.094 687.734 430.281C687.609 429.781 687.547 429.406 687.547 429.156C687.547 428.938 687.609 428.578 687.734 428.078C688.547 427.953 689.219 427.828 689.75 427.703C690.312 427.547 690.938 427.312 691.625 427C692.344 426.688 692.875 426.25 693.219 425.688C693.594 425.094 693.781 424.391 693.781 423.578L693.875 401.312C693.875 395.656 692.188 392.828 688.812 392.828C685.656 392.828 681.234 394.875 675.547 398.969C675.672 411.969 675.797 420.172 675.922 423.578C675.953 424.234 676.141 424.828 676.484 425.359C676.859 425.859 677.266 426.266 677.703 426.578C678.141 426.859 678.734 427.125 679.484 427.375C680.234 427.594 680.812 427.75 681.219 427.844C681.656 427.906 682.234 427.984 682.953 428.078C683.141 428.453 683.234 428.844 683.234 429.25C683.234 429.656 683.141 430 682.953 430.281C678.828 430.094 674.828 430 670.953 430C667.141 430 663.172 430.094 659.047 430.281C658.922 429.781 658.859 429.438 658.859 429.25C658.859 429.094 658.922 428.703 659.047 428.078C660.078 427.953 660.906 427.828 661.531 427.703C662.188 427.547 663 427.312 663.969 427C664.969 426.688 665.719 426.25 666.219 425.688C666.719 425.094 666.984 424.391 667.016 423.578C667.141 420.484 667.203 413.562 667.203 402.812C667.203 397.844 667.188 391.078 667.156 382.516C667.125 373.953 667.109 368.688 667.109 366.719C665.328 365.688 662.328 365.047 658.109 364.797C657.953 364.391 657.875 364.016 657.875 363.672C657.875 363.359 657.953 363 658.109 362.594ZM752.797 405.156H727.25C727.125 407.031 727.062 408.688 727.062 410.125C727.156 414.781 728.516 418.516 731.141 421.328C733.766 424.109 737.281 425.5 741.688 425.5C742.875 425.5 743.984 425.375 745.016 425.125C746.047 424.844 746.891 424.531 747.547 424.188C748.234 423.844 748.938 423.344 749.656 422.688C750.375 422.031 750.891 421.516 751.203 421.141C751.547 420.734 752 420.141 752.562 419.359C753.125 418.547 753.5 418.031 753.688 417.812C754.438 417.969 755.047 418.312 755.516 418.844C753.953 423.031 751.531 426.172 748.25 428.266C744.969 430.328 741.406 431.359 737.562 431.359C735.656 431.359 733.797 431.109 731.984 430.609C730.203 430.141 728.469 429.359 726.781 428.266C725.094 427.172 723.625 425.828 722.375 424.234C721.125 422.609 720.125 420.594 719.375 418.188C718.625 415.75 718.25 413.062 718.25 410.125C718.25 403.531 720.266 398.094 724.297 393.812C728.328 389.531 733.281 387.391 739.156 387.391C741.75 387.391 744 387.766 745.906 388.516C747.844 389.234 749.344 390.219 750.406 391.469C751.5 392.719 752.297 394.094 752.797 395.594C753.328 397.062 753.594 398.641 753.594 400.328C753.594 401.891 753.328 403.5 752.797 405.156ZM738.031 390.438C735.875 390.438 733.828 391.391 731.891 393.297C729.984 395.203 728.609 398.094 727.766 401.969H744.641C744.953 400.781 745.109 399.75 745.109 398.875C745.109 396.438 744.547 394.422 743.422 392.828C742.297 391.234 740.5 390.438 738.031 390.438ZM762.922 391.422C768.984 390.797 774.266 389.516 778.766 387.578C779.547 387.891 780.094 388.297 780.406 388.797V396.859C781.562 394.672 783.281 392.547 785.562 390.484C787.875 388.422 790.281 387.391 792.781 387.391C794.656 387.391 796.172 387.953 797.328 389.078C798.516 390.172 799.109 391.688 799.109 393.625C799.109 395.469 798.562 396.906 797.469 397.938C796.375 398.969 795 399.484 793.344 399.484C791.812 399.484 790.547 399 789.547 398.031C788.578 397.031 788.047 395.719 787.953 394.094C786.641 394.656 785.141 395.906 783.453 397.844C781.797 399.781 780.781 401.703 780.406 403.609C780.406 410.578 780.531 417.234 780.781 423.578C780.812 424.391 781.109 425.094 781.672 425.688C782.234 426.25 783.062 426.688 784.156 427C785.25 427.312 786.156 427.547 786.875 427.703C787.594 427.828 788.531 427.953 789.688 428.078C789.875 428.453 789.969 428.844 789.969 429.25C789.969 429.562 789.875 429.906 789.688 430.281C785 430.094 780.359 430 775.766 430C771.953 430 767.984 430.094 763.859 430.281C763.734 429.781 763.672 429.438 763.672 429.25C763.672 429.094 763.734 428.703 763.859 428.078C764.891 427.953 765.734 427.828 766.391 427.703C767.047 427.547 767.859 427.312 768.828 427C769.797 426.688 770.531 426.25 771.031 425.688C771.531 425.094 771.797 424.391 771.828 423.578C771.953 420.484 772.016 416.734 772.016 412.328C772.016 410.859 772 408.359 771.969 404.828C771.938 401.297 771.922 398.203 771.922 395.547C770.141 394.453 767.141 393.812 762.922 393.625C762.797 393.125 762.734 392.734 762.734 392.453C762.734 392.266 762.797 391.922 762.922 391.422Z" fill="black"/>
<path d="M533.083 411.333C530.306 411.278 527.972 410.528 526.083 409.083C524.194 407.694 523.25 405.528 523.25 402.583C523.25 399.861 523.861 397.417 525.083 395.25C526.361 393.083 528.056 391.167 530.167 389.5C532.278 387.833 534.694 386.361 537.417 385.083C540.194 383.806 543.083 382.722 546.083 381.833C549.139 380.944 552.194 380.194 555.25 379.583C558.306 378.972 561.194 378.472 563.917 378.083C565.361 374.917 566.611 371.861 567.667 368.917C568.722 365.972 569.722 363.139 570.667 360.417C568.833 363.028 566.778 365.361 564.5 367.417C562.278 369.472 559.889 371.222 557.333 372.667C554.833 374.111 552.222 375.222 549.5 376C546.833 376.778 544.139 377.167 541.417 377.167C538.583 377.167 536 376.75 533.667 375.917C531.333 375.083 529.333 373.861 527.667 372.25C526 370.583 524.694 368.556 523.75 366.167C522.806 363.722 522.333 360.917 522.333 357.75C522.333 354.083 523.167 350.056 524.833 345.667C526.5 341.278 528.861 336.778 531.917 332.167C535.028 327.556 538.75 322.972 543.083 318.417C547.472 313.806 552.389 309.472 557.833 305.417C557.333 304.806 556.833 304.111 556.333 303.333C555.889 302.5 555.472 301.639 555.083 300.75C554.75 299.861 554.472 299 554.25 298.167C554.028 297.278 553.917 296.444 553.917 295.667C553.917 295.111 554.194 294.833 554.75 294.833C555.194 294.833 555.472 295.083 555.583 295.583C555.583 297.306 555.972 298.972 556.75 300.583C557.583 302.194 558.389 303.5 559.167 304.5C565.056 300.389 570.583 297.167 575.75 294.833C580.917 292.444 585.917 291.25 590.75 291.25C591.972 291.25 593.167 291.417 594.333 291.75C595.5 292.028 596.5 292.528 597.333 293.25C598.222 293.917 598.917 294.778 599.417 295.833C599.972 296.889 600.25 298.167 600.25 299.667C600.25 301 600 302.306 599.5 303.583C599 304.806 598.361 305.972 597.583 307.083C596.806 308.194 595.917 309.222 594.917 310.167C593.972 311.056 593 311.806 592 312.417C588.167 314.861 583.944 316.083 579.333 316.083C575.389 316.083 571.583 315.278 567.917 313.667C564.25 312 561.222 309.722 558.833 306.833C553.944 310.444 549.389 314.417 545.167 318.75C540.944 323.083 537.25 327.528 534.083 332.083C530.972 336.639 528.528 341.139 526.75 345.583C524.972 349.972 524.083 354.056 524.083 357.833C524.083 361.167 524.611 363.972 525.667 366.25C526.778 368.472 528.167 370.278 529.833 371.667C531.5 373.056 533.361 374.028 535.417 374.583C537.472 375.194 539.5 375.5 541.5 375.5C544.389 375.5 547.111 375.083 549.667 374.25C552.278 373.417 554.75 372.333 557.083 371C558.361 370.278 559.722 369.333 561.167 368.167C562.667 367 564.167 365.611 565.667 364C567.167 362.389 568.611 360.5 570 358.333C571.444 356.167 572.75 353.694 573.917 350.917L575.417 351.5C574.139 355.389 572.75 359.556 571.25 364C569.806 368.389 568 373.028 565.833 377.917C569.667 377.583 573.667 377.417 577.833 377.417C578.278 377.417 578.861 377.389 579.583 377.333C580.306 377.333 581 377.333 581.667 377.333C582.389 377.389 583 377.472 583.5 377.583C584 377.75 584.25 378 584.25 378.333C584.25 378.889 583.944 379.167 583.333 379.167C582.389 379.111 581.472 379.083 580.583 379.083C579.694 379.083 578.806 379.083 577.917 379.083C575.528 379.083 573.25 379.139 571.083 379.25C568.972 379.361 566.944 379.5 565 379.667C564.056 381.611 563 383.75 561.833 386.083C560.667 388.417 559.361 390.75 557.917 393.083C556.472 395.417 554.889 397.667 553.167 399.833C551.444 402.056 549.556 404 547.5 405.667C545.444 407.389 543.222 408.75 540.833 409.75C538.444 410.806 535.861 411.333 533.083 411.333ZM563.083 379.917C557.861 380.528 553.389 381.333 549.667 382.333C546 383.333 542.972 384.333 540.583 385.333C538.194 386.333 536.444 387.194 535.333 387.917C534.222 388.694 533.667 389.083 533.667 389.083C533.556 389.083 533.028 389.417 532.083 390.083C531.194 390.806 530.194 391.778 529.083 393C528.028 394.222 527.056 395.639 526.167 397.25C525.333 398.917 524.917 400.694 524.917 402.583C524.917 404.75 525.583 406.472 526.917 407.75C528.25 409.028 530.306 409.667 533.083 409.667C535.972 409.667 538.667 409.028 541.167 407.75C543.722 406.472 546.056 404.861 548.167 402.917C550.278 400.972 552.167 398.806 553.833 396.417C555.556 394.028 557.028 391.722 558.25 389.5C559.528 387.333 560.556 385.361 561.333 383.583C562.167 381.861 562.75 380.639 563.083 379.917ZM560.167 305.833C562.556 308.667 565.417 310.806 568.75 312.25C572.139 313.694 575.583 314.417 579.083 314.417C581.139 314.417 583.306 314.083 585.583 313.417C587.861 312.75 589.944 311.806 591.833 310.583C593.778 309.306 595.389 307.75 596.667 305.917C597.944 304.083 598.583 302 598.583 299.667C598.583 297.722 597.944 296.139 596.667 294.917C595.389 293.639 593.361 293 590.583 293C586.639 293 582 294.111 576.667 296.333C571.333 298.5 565.833 301.667 560.167 305.833ZM586.667 372.667C585.722 372.667 584.778 372.611 583.833 372.5C582.889 372.389 582.056 372.139 581.333 371.75C580.556 371.306 579.944 370.694 579.5 369.917C579.056 369.139 578.833 368.111 578.833 366.833C578.833 365.167 579.222 363.389 580 361.5C580.722 359.556 581.667 357.611 582.833 355.667C583.944 353.722 585.139 351.833 586.417 350C587.694 348.167 588.861 346.5 589.917 345C591.417 342.833 592.889 340.778 594.333 338.833C595.833 336.889 597.167 335.167 598.333 333.667C599.556 332.167 600.528 330.972 601.25 330.083C602.028 329.194 602.417 328.75 602.417 328.75C602.472 328.583 602.667 328.5 603 328.5C603.5 328.5 603.75 328.75 603.75 329.25C603.75 329.361 603.694 329.528 603.583 329.75C603.583 329.75 603.194 330.194 602.417 331.083C601.694 331.972 600.722 333.167 599.5 334.667C598.333 336.111 597 337.806 595.5 339.75C594.056 341.694 592.583 343.722 591.083 345.833C590.083 347.222 588.972 348.806 587.75 350.583C586.528 352.361 585.361 354.194 584.25 356.083C583.139 357.972 582.222 359.861 581.5 361.75C580.722 363.583 580.333 365.278 580.333 366.833C580.333 367.833 580.528 368.639 580.917 369.25C581.306 369.806 581.806 370.222 582.417 370.5C583.028 370.778 583.694 370.972 584.417 371.083C585.194 371.139 585.944 371.167 586.667 371.167C589.056 371.167 591.667 370.694 594.5 369.75C597.333 368.75 600.167 367.472 603 365.917C605.889 364.306 608.722 362.5 611.5 360.5C614.333 358.5 616.944 356.444 619.333 354.333C619.556 354.222 619.722 354.167 619.833 354.167C620.333 354.167 620.583 354.417 620.583 354.917C620.583 355.139 620.5 355.333 620.333 355.5C617.833 357.611 615.194 359.694 612.417 361.75C609.694 363.806 606.889 365.639 604 367.25C601.111 368.861 598.194 370.167 595.25 371.167C592.361 372.167 589.5 372.667 586.667 372.667ZM614.5 318.083C614.5 319.194 614.111 320.167 613.333 321C612.556 321.778 611.611 322.167 610.5 322.167C609.389 322.167 608.417 321.778 607.583 321C606.806 320.167 606.417 319.194 606.417 318.083C606.417 316.972 606.806 316.028 607.583 315.25C608.417 314.472 609.389 314.083 610.5 314.083C611.611 314.083 612.556 314.472 613.333 315.25C614.111 316.028 614.5 316.972 614.5 318.083ZM585.375 420.917C584.597 420.917 583.958 420.778 583.458 420.5C582.903 420.278 582.486 419.972 582.208 419.583C581.931 419.194 581.736 418.75 581.625 418.25C581.514 417.806 581.458 417.361 581.458 416.917C581.458 415.917 581.764 414.556 582.375 412.833C582.931 411.167 583.569 409.5 584.292 407.833C585.014 406.167 585.708 404.667 586.375 403.333C586.986 402.056 587.375 401.306 587.542 401.083C588.542 399.139 589.958 396.778 591.792 394C593.625 391.222 595.764 388.139 598.208 384.75C600.597 381.417 603.236 377.861 606.125 374.083C609.014 370.361 611.986 366.556 615.042 362.667C618.097 358.722 621.181 354.806 624.292 350.917C627.403 347.028 630.431 343.278 633.375 339.667C638.375 333.5 643.208 327.611 647.875 322C652.597 316.389 656.792 311.417 660.458 307.083C664.181 302.694 667.236 299.111 669.625 296.333C672.014 293.556 673.458 291.889 673.958 291.333C674.903 290.222 675.847 289.5 676.792 289.167C677.792 288.833 678.597 288.667 679.208 288.667C681.097 288.667 682.403 289.333 683.125 290.667C683.847 292 684.208 293.5 684.208 295.167C684.208 296 684.153 296.806 684.042 297.583C683.931 298.306 683.792 299 683.625 299.667C683.458 300.278 683.292 300.778 683.125 301.167C683.014 301.556 682.958 301.778 682.958 301.833C681.569 305.889 679.236 310.222 675.958 314.833C672.681 319.389 668.486 324.028 663.375 328.75C658.319 333.417 652.375 338.056 645.542 342.667C638.708 347.222 631.014 351.528 622.458 355.583C621.292 357.028 620.125 358.5 618.958 360C617.792 361.5 616.625 362.972 615.458 364.417C615.736 364.694 616.403 365.278 617.458 366.167C618.458 367 619.764 367.722 621.375 368.333C622.708 368.889 624.097 369.278 625.542 369.5C626.986 369.722 628.486 369.833 630.042 369.833C633.875 369.833 637.708 369.25 641.542 368.083C645.375 366.917 648.847 365.611 651.958 364.167C653.736 363.333 655.875 362.167 658.375 360.667C660.931 359.167 663.569 357.25 666.292 354.917C666.514 354.806 666.681 354.75 666.792 354.75C667.292 354.75 667.542 355 667.542 355.5C667.542 355.722 667.458 355.917 667.292 356.083C664.458 358.417 661.736 360.389 659.125 362C656.569 363.556 654.375 364.75 652.542 365.583C649.153 367.139 645.486 368.5 641.542 369.667C637.653 370.778 633.792 371.333 629.958 371.333C627.069 371.333 624.292 370.861 621.625 369.917C619.014 368.972 617.042 367.889 615.708 366.667C615.764 367.389 615.819 368.111 615.875 368.833C615.875 369.5 615.875 370.194 615.875 370.917C615.875 374.694 615.403 378.611 614.458 382.667C613.514 386.722 612.208 390.667 610.542 394.5C608.819 398.389 606.819 402.056 604.542 405.5C602.208 409 599.708 412.028 597.042 414.583C594.875 416.694 592.792 418.278 590.792 419.333C588.792 420.389 586.986 420.917 585.375 420.917ZM614.125 366.167C608.625 373.167 603.931 379.389 600.042 384.833C596.097 390.278 592.875 395.056 590.375 399.167C587.875 403.333 586.042 406.861 584.875 409.75C583.653 412.639 583.042 415.028 583.042 416.917C583.042 417.861 583.236 418.528 583.625 418.917C584.014 419.306 584.681 419.5 585.625 419.5C587.403 419.5 589.375 418.806 591.542 417.417C593.653 416.028 595.792 414.139 597.958 411.75C600.069 409.417 602.125 406.667 604.125 403.5C606.069 400.333 607.819 396.944 609.375 393.333C610.875 389.722 612.097 386 613.042 382.167C613.931 378.333 614.375 374.583 614.375 370.917C614.375 369.361 614.292 367.778 614.125 366.167ZM675.125 292.333C674.736 292.778 673.764 293.889 672.208 295.667C670.653 297.444 668.653 299.778 666.208 302.667C663.819 305.5 661.042 308.806 657.875 312.583C654.708 316.306 651.319 320.333 647.708 324.667C644.097 329 640.319 333.583 636.375 338.417C632.486 343.194 628.569 348.028 624.625 352.917C632.625 348.917 639.819 344.722 646.208 340.333C652.653 335.889 658.264 331.444 663.042 327C667.819 322.5 671.764 318.083 674.875 313.75C677.986 309.361 680.208 305.222 681.542 301.333C681.597 301.278 681.819 300.611 682.208 299.333C682.597 298.056 682.792 296.639 682.792 295.083C682.792 294.528 682.736 293.972 682.625 293.417C682.514 292.806 682.319 292.278 682.042 291.833C681.819 291.333 681.486 290.944 681.042 290.667C680.597 290.333 680.014 290.167 679.292 290.167C678.514 290.167 677.736 290.389 676.958 290.833C676.236 291.278 675.625 291.778 675.125 292.333ZM666.542 354.667C668.042 353.333 669.625 351.972 671.292 350.583C673.014 349.139 674.736 347.694 676.458 346.25C678.236 344.75 679.986 343.306 681.708 341.917C683.431 340.472 685.097 339.111 686.708 337.833C690.431 334.778 694.153 331.778 697.875 328.833C697.208 328.833 696.069 328.806 694.458 328.75C692.903 328.694 691.181 328.611 689.292 328.5C687.458 328.389 685.653 328.278 683.875 328.167C682.097 328.056 680.708 327.944 679.708 327.833C679.208 327.722 678.958 327.444 678.958 327C678.958 326.556 679.208 326.333 679.708 326.333C679.819 326.333 679.958 326.333 680.125 326.333C680.347 326.333 680.681 326.361 681.125 326.417C687.125 326.917 692.958 327.25 698.625 327.417C702.347 320.417 705.764 314.167 708.875 308.667C711.986 303.167 714.708 298.528 717.042 294.75C719.431 290.917 721.431 288 723.042 286C724.653 284 725.847 283 726.625 283C726.847 283 727.153 283.083 727.542 283.25C727.986 283.417 728.208 283.917 728.208 284.75C728.208 285.528 728.069 286.417 727.792 287.417C727.514 288.361 727.292 289.056 727.125 289.5C725.569 293.556 723.597 297.528 721.208 301.417C718.875 305.306 716.458 308.944 713.958 312.333C711.458 315.667 709.069 318.667 706.792 321.333C704.514 323.944 702.708 326 701.375 327.5C702.542 327.5 703.681 327.528 704.792 327.583C705.958 327.583 707.097 327.583 708.208 327.583C712.153 327.583 716.014 327.5 719.792 327.333C720.292 327.333 720.542 327.583 720.542 328.083C720.542 328.417 720.069 328.667 719.125 328.833C718.181 328.944 717.042 329.028 715.708 329.083C714.431 329.083 713.125 329.083 711.792 329.083C710.458 329.083 709.403 329.083 708.625 329.083C707.181 329.083 705.736 329.083 704.292 329.083C702.903 329.028 701.486 328.972 700.042 328.917C699.764 329.194 699.542 329.444 699.375 329.667C699.208 329.833 699.042 330 698.875 330.167C696.708 334.278 694.653 338.194 692.708 341.917C690.764 345.639 689.069 348.917 687.625 351.75C686.181 354.583 685.014 356.861 684.125 358.583C683.292 360.306 682.847 361.194 682.792 361.25C682.403 361.972 682.097 362.694 681.875 363.417C681.597 364.028 681.375 364.722 681.208 365.5C681.042 366.278 680.958 367.056 680.958 367.833C680.958 371.222 683.097 372.917 687.375 372.917C689.875 372.917 692.403 372.556 694.958 371.833C697.569 371.056 700.125 370.083 702.625 368.917C705.125 367.75 707.514 366.444 709.792 365C712.069 363.556 714.153 362.139 716.042 360.75C717.986 359.306 719.653 358 721.042 356.833C722.486 355.611 723.597 354.667 724.375 354C724.597 353.889 724.764 353.833 724.875 353.833C725.375 353.833 725.625 354.083 725.625 354.583C725.625 354.806 725.542 355 725.375 355.167C722.208 358 718.903 360.611 715.458 363C712.069 365.333 708.736 367.361 705.458 369.083C702.181 370.75 698.986 372.056 695.875 373C692.819 373.944 690.042 374.417 687.542 374.417C684.819 374.417 682.792 373.806 681.458 372.583C680.125 371.361 679.458 369.75 679.458 367.75C679.458 366.917 679.542 366.083 679.708 365.25C679.931 364.417 680.153 363.667 680.375 363C680.653 362.333 680.875 361.806 681.042 361.417C681.264 360.972 681.403 360.694 681.458 360.583C681.514 360.472 681.958 359.583 682.792 357.917C683.681 356.25 684.847 354.083 686.292 351.417C687.736 348.694 689.375 345.611 691.208 342.167C693.042 338.667 694.931 335.083 696.875 331.417C696.819 331.472 696.125 332.028 694.792 333.083C693.514 334.139 691.875 335.472 689.875 337.083C687.875 338.694 685.681 340.472 683.292 342.417C680.903 344.361 678.625 346.25 676.458 348.083C674.292 349.861 672.375 351.472 670.708 352.917C669.097 354.306 668.042 355.278 667.542 355.833C667.319 356.056 667.097 356.167 666.875 356.167C666.597 356.167 666.403 356.083 666.292 355.917C666.181 355.75 666.125 355.583 666.125 355.417C666.125 355.139 666.264 354.889 666.542 354.667ZM701.792 324.75C703.069 323.306 704.847 321.25 707.125 318.583C709.458 315.917 711.847 312.889 714.292 309.5C716.736 306.111 719.069 302.5 721.292 298.667C723.569 294.778 725.292 290.889 726.458 287C726.625 286.5 726.708 286.083 726.708 285.75C726.764 285.417 726.792 285.139 726.792 284.917C726.792 284.639 726.736 284.5 726.625 284.5C726.014 284.5 724.847 285.75 723.125 288.25C721.403 290.75 719.347 293.972 716.958 297.917C714.625 301.806 712.125 306.139 709.458 310.917C706.792 315.639 704.236 320.25 701.792 324.75Z" fill="#0099FF"/>
</g>
<defs>
<clipPath id="clip0_237_47">
<rect width="1224" height="792" fill="white"/>
</clipPath>
</defs>
</svg>
